<svg width="27" height="27" viewBox="0 0 27 27" fill="none" xmlns="http://www.w3.org/2000/svg">
<g clip-path="url(#clip0_112_392)">
<path d="M26.5781 13.5003C26.5781 6.27572 20.7246 0.422205 13.5 0.422205C6.27538 0.422205 0.421865 6.27572 0.421865 13.5003C0.421865 20.0278 5.20435 25.4383 11.4565 26.4203V17.2809H8.13427V13.5003H11.4565V10.6189C11.4565 7.34149 13.4077 5.53111 16.3962 5.53111C17.8274 5.53111 19.324 5.78635 19.324 5.78635V9.00315H17.6745C16.0502 9.00315 15.5435 10.0114 15.5435 11.0455V13.5003H19.1705L18.5904 17.2809H15.5435V26.4203C21.7956 25.4383 26.5781 20.0278 26.5781 13.5003Z" fill="#9CA3AF"/>
</g>
<defs>
<clipPath id="clip0_112_392">
<path d="M0 0H27V27H0V0Z" fill="white"/>
</clipPath>
</defs>
</svg>
