<svg width="689" height="623" viewBox="0 0 689 623" fill="none" xmlns="http://www.w3.org/2000/svg">
<g clip-path="url(#clip0_232_22)">
<path d="M300.965 515.252H13.6436C10.0263 515.248 6.55835 513.809 4.00054 511.252C1.44272 508.694 0.00394888 505.226 -0.000122136 501.608V111.558C0.00394888 107.94 1.44272 104.472 4.00054 101.915C6.55835 99.3568 10.0263 97.918 13.6436 97.9139H300.965C304.582 97.918 308.05 99.3568 310.608 101.915C313.166 104.472 314.605 107.94 314.609 111.558V501.608C314.605 505.226 313.166 508.694 310.608 511.252C308.05 513.809 304.582 515.248 300.965 515.252Z" fill="white"/>
<path d="M144.352 199.426C144.352 210.691 140.788 221.667 134.171 230.784C127.553 239.901 118.222 246.69 107.511 250.181C107.191 250.282 106.871 250.384 106.545 250.481C105.158 250.908 103.751 251.272 102.32 251.583C99.7299 252.145 97.101 252.509 94.4559 252.674C93.3063 252.752 92.1501 252.791 90.9872 252.791C84.9793 252.797 79.0137 251.786 73.3429 249.802C73.178 249.744 73.0131 249.686 72.853 249.628C63.665 246.309 55.564 240.533 49.4327 232.927C43.3015 225.322 39.3754 216.18 38.082 206.497C36.7886 196.814 38.1777 186.962 42.0979 178.014C46.0181 169.066 52.319 161.366 60.314 155.753C68.309 150.139 77.6913 146.828 87.4387 146.179C97.186 145.53 106.924 147.57 115.593 152.074C124.261 156.579 131.526 163.377 136.598 171.726C141.669 180.076 144.351 189.657 144.352 199.426Z" fill="white"/>
<path d="M89.7087 234.782C104.048 234.782 115.673 223.158 115.673 208.818C115.673 194.479 104.048 182.854 89.7087 182.854C75.3692 182.854 63.7448 194.479 63.7448 208.818C63.7448 223.158 75.3692 234.782 89.7087 234.782Z" fill="#4F9CF9"/>
<path d="M91.2245 222.807L91.2515 221.837C89.4464 221.787 87.8551 221.674 86.6593 220.8C86.3203 220.538 86.0416 220.207 85.8423 219.827C85.6429 219.448 85.5275 219.031 85.504 218.603C85.483 218.342 85.5225 218.079 85.6195 217.836C85.7165 217.592 85.8684 217.374 86.0633 217.199C86.5151 216.925 87.0323 216.778 87.5606 216.773C88.0889 216.769 88.6087 216.907 89.0653 217.172L89.8681 217.54L88.3286 206.29L87.3673 206.422L88.6768 215.992C88.1408 215.793 87.5635 215.731 86.9976 215.813C86.4317 215.894 85.8952 216.116 85.437 216.458C85.1288 216.727 84.8869 217.064 84.7303 217.442C84.5738 217.82 84.5067 218.229 84.5345 218.637C84.5628 219.212 84.7164 219.773 84.9846 220.282C85.2528 220.791 85.6291 221.235 86.087 221.584C87.6234 222.706 89.6201 222.762 91.2245 222.807Z" fill="#2F2E41"/>
<path d="M82.6134 207.247H77.3878V208.218H82.6134V207.247Z" fill="#2F2E41"/>
<path d="M99.108 207.247H93.8824V208.218H99.108V207.247Z" fill="#2F2E41"/>
<path d="M97.0854 245.116C97.1542 244.797 97.19 244.472 97.1922 244.145C97.1903 242.924 96.7041 241.752 95.8402 240.889C94.9763 240.025 93.8052 239.539 92.5835 239.537H85.7916C84.5696 239.538 83.398 240.024 82.5339 240.888C81.6698 241.752 81.1839 242.923 81.1828 244.145C81.1826 244.473 81.2183 244.8 81.2894 245.12C78.7255 245.928 76.302 247.128 74.1048 248.677C73.6777 248.972 73.2558 249.293 72.8531 249.627C73.0132 249.686 73.1781 249.744 73.343 249.802C79.0138 251.786 84.9794 252.796 90.9873 252.79C92.1516 252.79 93.3078 252.752 94.4559 252.674C97.1011 252.509 99.7299 252.144 102.32 251.582C103.751 251.272 105.158 250.908 106.545 250.481C103.8 248.053 100.578 246.225 97.0854 245.116Z" fill="#2F2E41"/>
<path d="M96.2123 252.058C95.5827 252.104 94.9767 252.317 94.456 252.674C97.1012 252.509 99.73 252.145 102.32 251.583L96.2123 252.058Z" fill="#2F2E41"/>
<path d="M113.256 202.65L68.1516 186.15C67.6683 185.973 67.275 185.611 67.0583 185.144C66.8415 184.678 66.8191 184.144 66.9959 183.661L67.1485 182.939C70.6711 173.31 82.3468 167.25 91.9758 170.773L105.856 175.85C115.485 179.373 119.67 190.775 116.147 200.404L115.745 201.495C115.569 201.978 115.207 202.371 114.74 202.588C114.273 202.805 113.74 202.827 113.256 202.65Z" fill="#2F2E41"/>
<path d="M115.686 203.566C52.8189 205.886 47.3256 197.986 66.4808 185.565L70.5445 178.088L117.117 195.067L115.686 203.566Z" fill="#2F2E41"/>
<path d="M103.359 174.666C103.706 173.511 102.219 172.044 100.038 171.388C97.8573 170.733 95.8079 171.137 95.4608 172.292C95.1137 173.447 96.6004 174.914 98.7814 175.57C100.962 176.225 103.012 175.821 103.359 174.666Z" fill="#2F2E41"/>
<path d="M90.9872 254.246C84.8154 254.253 78.687 253.215 72.8617 251.176L72.3553 250.995C60.1532 246.585 49.9106 237.991 43.4491 226.74C36.9876 215.489 34.726 202.311 37.0665 189.549C39.407 176.788 46.198 165.27 56.2316 157.044C66.2652 148.818 78.8911 144.418 91.8639 144.625C104.837 144.833 117.315 149.635 127.081 158.177C136.846 166.72 143.265 178.449 145.197 191.279C147.128 204.109 144.446 217.208 137.628 228.246C130.81 239.285 120.298 247.547 107.961 251.565C107.616 251.674 107.292 251.777 106.962 251.876C105.584 252.3 104.122 252.681 102.628 253.005C99.9661 253.582 97.2641 253.957 94.5453 254.127C93.3773 254.206 92.1772 254.246 90.9872 254.246ZM90.9872 147.517C78.7722 147.518 66.9488 151.827 57.5968 159.685C48.2447 167.543 41.9628 178.447 39.856 190.479C37.7492 202.511 39.9524 214.9 46.078 225.469C52.2037 236.037 61.8595 244.106 73.3473 248.259L73.8279 248.43C79.3428 250.36 85.1445 251.342 90.9872 251.335C92.1121 251.335 93.246 251.297 94.3577 251.222C96.9323 251.061 99.4911 250.706 102.012 250.16C103.425 249.854 104.806 249.494 106.117 249.09C106.442 248.993 106.75 248.895 107.059 248.797C118.809 244.97 128.808 237.077 135.26 226.537C141.711 215.997 144.192 203.502 142.255 191.297C140.318 179.092 134.092 167.978 124.694 159.953C115.297 151.928 103.345 147.518 90.9872 147.517Z" fill="#CCCCCC"/>
<path d="M300.965 515.252H13.6436C10.0263 515.248 6.55835 513.809 4.00054 511.252C1.44272 508.694 0.00394888 505.226 -0.000122136 501.608V111.558C0.00394888 107.94 1.44272 104.472 4.00054 101.915C6.55835 99.3568 10.0263 97.918 13.6436 97.9139H300.965C304.582 97.918 308.05 99.3568 310.608 101.915C313.166 104.472 314.605 107.94 314.609 111.558V501.608C314.605 505.226 313.166 508.694 310.608 511.252C308.05 513.809 304.582 515.248 300.965 515.252ZM13.6436 99.5191C10.4519 99.5227 7.39195 100.792 5.13506 103.049C2.87817 105.306 1.60864 108.366 1.60503 111.558V501.608C1.60864 504.8 2.87814 507.86 5.13503 510.117C7.39192 512.374 10.4519 513.643 13.6436 513.647H300.965C304.157 513.643 307.217 512.374 309.473 510.117C311.73 507.86 313 504.8 313.004 501.608V111.558C313 108.366 311.73 105.306 309.473 103.049C307.217 100.792 304.157 99.5227 300.965 99.5191H13.6436Z" fill="#CCCCCC"/>
<path d="M245.343 199.218H164.041C162.336 199.216 160.703 198.537 159.498 197.331C158.294 196.125 157.617 194.491 157.617 192.786C157.617 191.082 158.294 189.447 159.498 188.241C160.703 187.035 162.336 186.356 164.041 186.354H245.343C246.188 186.353 247.026 186.519 247.807 186.842C248.588 187.164 249.298 187.638 249.896 188.235C250.494 188.833 250.969 189.542 251.292 190.323C251.616 191.104 251.783 191.941 251.783 192.786C251.783 193.632 251.616 194.469 251.292 195.249C250.969 196.03 250.494 196.74 249.896 197.337C249.298 197.934 248.588 198.408 247.807 198.731C247.026 199.054 246.188 199.219 245.343 199.218Z" fill="#E6E6E6"/>
<path d="M271.875 220.926H164.041C162.336 220.924 160.703 220.245 159.498 219.039C158.294 217.833 157.617 216.199 157.617 214.494C157.617 212.79 158.294 211.155 159.498 209.949C160.703 208.743 162.336 208.064 164.041 208.062H271.875C273.579 208.064 275.213 208.743 276.418 209.949C277.622 211.155 278.299 212.79 278.299 214.494C278.299 216.199 277.622 217.833 276.418 219.039C275.213 220.245 273.579 220.924 271.875 220.926Z" fill="#E6E6E6"/>
<path d="M245.225 304.184H42.734C41.8886 304.185 41.0514 304.019 40.2701 303.697C39.4888 303.374 38.7788 302.9 38.1807 302.303C37.5826 301.706 37.1082 300.996 36.7844 300.215C36.4607 299.434 36.2941 298.597 36.2941 297.752C36.2941 296.907 36.4607 296.07 36.7844 295.289C37.1082 294.508 37.5826 293.799 38.1807 293.201C38.7788 292.604 39.4888 292.13 40.2701 291.807C41.0514 291.485 41.8886 291.319 42.734 291.32H245.225C246.929 291.322 248.563 292.001 249.768 293.207C250.972 294.413 251.649 296.048 251.649 297.752C251.649 299.457 250.972 301.091 249.768 302.297C248.563 303.503 246.929 304.182 245.225 304.184Z" fill="#E6E6E6"/>
<path d="M271.756 325.892H42.734C41.8886 325.893 41.0514 325.727 40.2701 325.404C39.4888 325.082 38.7788 324.608 38.1807 324.011C37.5826 323.413 37.1082 322.704 36.7844 321.923C36.4607 321.142 36.2941 320.305 36.2941 319.46C36.2941 318.614 36.4607 317.777 36.7844 316.996C37.1082 316.216 37.5826 315.506 38.1807 314.909C38.7788 314.311 39.4888 313.838 40.2701 313.515C41.0514 313.192 41.8886 313.027 42.734 313.028H271.756C272.602 313.027 273.439 313.192 274.22 313.515C275.001 313.838 275.711 314.311 276.309 314.909C276.908 315.506 277.382 316.216 277.706 316.996C278.03 317.777 278.196 318.614 278.196 319.46C278.196 320.305 278.03 321.142 277.706 321.923C277.382 322.704 276.908 323.413 276.309 324.011C275.711 324.608 275.001 325.082 274.22 325.404C273.439 325.727 272.602 325.893 271.756 325.892Z" fill="#E6E6E6"/>
<path d="M245.225 375.784H42.7339C41.0281 375.784 39.3921 375.107 38.1859 373.9C36.9797 372.694 36.302 371.058 36.302 369.352C36.302 367.647 36.9797 366.011 38.1859 364.804C39.3921 363.598 41.0281 362.92 42.7339 362.92H245.225C246.93 362.92 248.566 363.598 249.773 364.804C250.979 366.011 251.656 367.647 251.656 369.352C251.656 371.058 250.979 372.694 249.773 373.9C248.566 375.107 246.93 375.784 245.225 375.784Z" fill="#E6E6E6"/>
<path d="M271.756 397.492H42.7339C41.0281 397.492 39.3921 396.815 38.1859 395.608C36.9797 394.402 36.302 392.766 36.302 391.06C36.302 389.354 36.9797 387.718 38.1859 386.512C39.3921 385.306 41.0281 384.628 42.7339 384.628H271.756C273.462 384.628 275.098 385.306 276.304 386.512C277.51 387.718 278.188 389.354 278.188 391.06C278.188 392.766 277.51 394.402 276.304 395.608C275.098 396.815 273.462 397.492 271.756 397.492Z" fill="#E6E6E6"/>
<path d="M245.225 447.385H42.7339C41.0281 447.385 39.3921 446.707 38.1859 445.501C36.9797 444.294 36.302 442.659 36.302 440.953C36.302 439.247 36.9797 437.611 38.1859 436.405C39.3921 435.198 41.0281 434.521 42.7339 434.521H245.225C246.93 434.521 248.566 435.198 249.773 436.405C250.979 437.611 251.656 439.247 251.656 440.953C251.656 442.659 250.979 444.294 249.773 445.501C248.566 446.707 246.93 447.385 245.225 447.385Z" fill="#E6E6E6"/>
<path d="M271.756 469.092H42.7339C41.0281 469.092 39.3921 468.415 38.1859 467.208C36.9797 466.002 36.302 464.366 36.302 462.66C36.302 460.954 36.9797 459.319 38.1859 458.112C39.3921 456.906 41.0281 456.228 42.7339 456.228H271.756C273.462 456.228 275.098 456.906 276.304 458.112C277.51 459.319 278.188 460.954 278.188 462.66C278.188 464.366 277.51 466.002 276.304 467.208C275.098 468.415 273.462 469.092 271.756 469.092Z" fill="#E6E6E6"/>
<path d="M674.964 417.338L387.643 417.338C384.026 417.334 380.558 415.896 378 413.338C375.442 410.78 374.003 407.312 373.999 403.695L373.999 13.644C374.003 10.0267 375.442 6.55872 378 4.0009C380.557 1.44308 384.025 0.00429945 387.643 0.000225814L674.964 0C678.581 0.0040684 682.049 1.44283 684.607 4.00064C687.165 6.55846 688.604 10.0264 688.608 13.6437L688.608 403.694C688.604 407.312 687.165 410.78 684.607 413.338C682.05 415.895 678.582 417.334 674.964 417.338Z" fill="white"/>
<path d="M674.964 417.338L387.643 417.338C384.026 417.334 380.558 415.896 378 413.338C375.442 410.78 374.003 407.312 373.999 403.695L373.999 13.644C374.003 10.0267 375.442 6.55872 378 4.0009C380.557 1.44308 384.025 0.00429945 387.643 0.000225814L674.964 0C678.581 0.0040684 682.049 1.44283 684.607 4.00064C687.165 6.55846 688.604 10.0264 688.608 13.6437L688.608 403.694C688.604 407.312 687.165 410.78 684.607 413.338C682.05 415.895 678.582 417.334 674.964 417.338ZM387.643 1.60537C384.451 1.60899 381.391 2.87851 379.134 5.13541C376.877 7.3923 375.608 10.4523 375.604 13.644L375.604 403.695C375.608 406.886 376.878 409.946 379.135 412.203C381.391 414.46 384.451 415.73 387.643 415.733L674.964 415.733C678.156 415.729 681.216 414.46 683.473 412.203C685.73 409.946 686.999 406.886 687.003 403.695L687.003 13.6438C686.999 10.452 685.73 7.39206 683.473 5.13517C681.216 2.87827 678.156 1.60876 674.964 1.60515L387.643 1.60537Z" fill="#CCCCCC"/>
<path d="M518.486 100.98C518.486 111.535 515.356 121.852 509.492 130.628C503.629 139.404 495.294 146.244 485.543 150.283C475.792 154.322 465.062 155.379 454.71 153.32C444.359 151.26 434.85 146.178 427.387 138.715C419.924 131.252 414.841 121.743 412.782 111.391C410.723 101.039 411.78 90.3096 415.819 80.5585C419.858 70.8074 426.698 62.4729 435.473 56.6091C444.249 50.7454 454.567 47.6156 465.121 47.6156C479.273 47.62 492.844 53.2438 502.851 63.2506C512.858 73.2575 518.482 86.8284 518.486 100.98Z" fill="white"/>
<path d="M489.785 110.111C489.203 144.241 438.436 144.236 437.858 110.11C438.44 75.9819 489.207 75.9872 489.785 110.111Z" fill="#4F9CF9"/>
<path d="M462.791 120.705L462.764 119.735C469.451 120.627 470.891 112.34 464.147 115.438L465.687 104.188L466.648 104.319L465.339 113.889C472.44 112.832 469.813 121.675 462.791 120.705Z" fill="#2F2E41"/>
<path d="M476.628 105.144H471.402V106.115H476.628V105.144Z" fill="#2F2E41"/>
<path d="M460.133 105.144H454.908V106.115H460.133V105.144Z" fill="#2F2E41"/>
<path d="M472.238 146.413C473.257 139.538 465.209 140.897 460.949 140.829C460.262 140.831 459.585 140.986 458.965 141.283C458.346 141.581 457.801 142.012 457.37 142.547C456.939 143.081 456.632 143.705 456.472 144.373C456.313 145.041 456.304 145.736 456.447 146.408C453.15 147.427 450.097 149.111 447.477 151.356C458.52 155.207 470.519 155.34 481.645 151.735C478.933 149.299 475.723 147.483 472.238 146.413Z" fill="#2F2E41"/>
<path d="M451.615 97.8311C456.427 95.0502 462.262 97.1837 467.232 98.3501C476.662 101.249 489.886 97.6189 491.033 86.3855C492.226 75.9382 477.935 70.1155 473.367 80.5136L474.697 80.3398C459.883 58.3234 434.113 59.1584 434.283 89.427C434.228 90.3621 435.684 90.359 435.738 89.4265C435.193 71.5896 446.997 59.3969 463.684 70.8596C467.411 73.7771 470.697 77.2176 473.44 81.0743C475.178 83.0219 475.556 74.6345 483.874 76.8313C493.027 80.3777 490.041 93.4852 481.859 96.3627C471.749 101.528 460.8 91.5136 450.88 96.5738C450.721 96.6747 450.606 96.8336 450.561 97.0171C450.517 97.2005 450.545 97.3943 450.64 97.5573C450.735 97.7204 450.89 97.8401 451.072 97.8912C451.254 97.9423 451.449 97.9207 451.615 97.8311Z" fill="#2F2E41"/>
<path d="M465.121 155.8C451.341 155.789 438.07 150.583 427.958 141.221C417.845 131.859 411.633 119.029 410.56 105.29C409.487 91.5506 413.633 77.912 422.17 67.094C430.708 56.276 443.009 49.0736 456.621 46.9233C470.233 44.773 484.156 47.8329 495.612 55.4926C507.068 63.1523 515.216 74.8489 518.431 88.2497C521.645 101.651 519.69 115.771 512.955 127.794C506.221 139.817 495.201 148.86 482.095 153.119C476.614 154.902 470.885 155.807 465.121 155.8ZM465.121 49.0709C454.853 49.0694 444.814 52.1133 436.275 57.8174C427.736 63.5215 421.081 71.6297 417.151 81.1165C413.22 90.6033 412.192 101.043 414.195 111.114C416.198 121.186 421.142 130.437 428.403 137.698C435.665 144.959 444.916 149.904 454.987 151.907C465.059 153.91 475.498 152.881 484.985 148.951C494.472 145.02 502.58 138.365 508.284 129.826C513.988 121.287 517.032 111.249 517.031 100.98C517.015 87.2177 511.541 74.0234 501.81 64.2919C492.078 54.5604 478.884 49.0864 465.121 49.0709Z" fill="#CCCCCC"/>
<path d="M619.342 101.304L538.04 101.304C536.334 101.304 534.698 100.626 533.492 99.4202C532.286 98.2139 531.608 96.578 531.608 94.8721C531.608 93.1663 532.286 91.5303 533.492 90.3241C534.698 89.1178 536.334 88.4402 538.04 88.4402L619.342 88.4401C621.048 88.4401 622.684 89.1178 623.89 90.324C625.096 91.5302 625.774 93.1662 625.774 94.872C625.774 96.5779 625.096 98.2139 623.89 99.4201C622.684 100.626 621.048 101.304 619.342 101.304Z" fill="#E6E6E6"/>
<path d="M645.874 123.012L538.04 123.012C537.195 123.013 536.358 122.847 535.576 122.524C534.795 122.202 534.085 121.728 533.487 121.131C532.889 120.533 532.414 119.824 532.091 119.043C531.767 118.262 531.6 117.425 531.6 116.58C531.6 115.734 531.767 114.897 532.091 114.117C532.414 113.336 532.889 112.626 533.487 112.029C534.085 111.432 534.795 110.958 535.576 110.635C536.358 110.312 537.195 110.147 538.04 110.148L645.874 110.148C647.58 110.148 649.216 110.825 650.422 112.032C651.628 113.238 652.306 114.874 652.306 116.58C652.306 118.286 651.628 119.922 650.422 121.128C649.216 122.334 647.58 123.012 645.874 123.012Z" fill="#E6E6E6"/>
<path d="M619.224 206.27L416.733 206.27C415.029 206.268 413.395 205.59 412.19 204.384C410.986 203.178 410.309 201.543 410.309 199.838C410.309 198.134 410.986 196.499 412.19 195.293C413.395 194.087 415.029 193.408 416.733 193.406L619.224 193.406C620.93 193.406 622.566 194.084 623.772 195.29C624.978 196.496 625.656 198.132 625.656 199.838C625.656 201.544 624.978 203.18 623.772 204.386C622.566 205.592 620.93 206.27 619.224 206.27Z" fill="#E6E6E6"/>
<path d="M645.756 227.978L416.733 227.978C415.888 227.979 415.051 227.813 414.269 227.491C413.488 227.168 412.778 226.694 412.18 226.097C411.582 225.499 411.107 224.79 410.784 224.009C410.46 223.228 410.293 222.391 410.293 221.546C410.293 220.701 410.46 219.864 410.784 219.083C411.107 218.302 411.582 217.592 412.18 216.995C412.778 216.398 413.488 215.924 414.269 215.601C415.051 215.279 415.888 215.113 416.733 215.114L645.756 215.114C647.461 215.114 649.097 215.791 650.304 216.998C651.51 218.204 652.187 219.84 652.187 221.546C652.187 223.252 651.51 224.888 650.304 226.094C649.097 227.3 647.461 227.978 645.756 227.978Z" fill="#E6E6E6"/>
<path d="M619.224 277.87L416.733 277.87C415.029 277.868 413.395 277.19 412.19 275.984C410.986 274.778 410.309 273.143 410.309 271.438C410.309 269.734 410.986 268.099 412.19 266.893C413.395 265.687 415.029 265.009 416.733 265.006L619.224 265.006C620.93 265.006 622.566 265.684 623.772 266.89C624.978 268.096 625.656 269.732 625.656 271.438C625.656 273.144 624.978 274.78 623.772 275.986C622.566 277.192 620.93 277.87 619.224 277.87Z" fill="#E6E6E6"/>
<path d="M645.756 299.578L416.733 299.578C415.888 299.579 415.051 299.414 414.269 299.091C413.488 298.768 412.778 298.294 412.18 297.697C411.582 297.1 411.108 296.39 410.784 295.609C410.46 294.829 410.293 293.992 410.293 293.146C410.293 292.301 410.46 291.464 410.784 290.683C411.108 289.902 411.582 289.193 412.18 288.595C412.778 287.998 413.488 287.524 414.269 287.202C415.051 286.879 415.888 286.713 416.733 286.714L645.756 286.714C647.461 286.714 649.097 287.392 650.304 288.598C651.51 289.804 652.188 291.44 652.188 293.146C652.188 294.852 651.51 296.488 650.304 297.694C649.097 298.9 647.461 299.578 645.756 299.578Z" fill="#E6E6E6"/>
<path d="M619.224 349.471L416.733 349.471C415.027 349.471 413.391 348.793 412.185 347.587C410.979 346.381 410.301 344.745 410.301 343.039C410.301 341.333 410.979 339.697 412.185 338.491C413.391 337.285 415.027 336.607 416.733 336.607L619.224 336.607C620.93 336.607 622.566 337.284 623.772 338.491C624.978 339.697 625.656 341.333 625.656 343.039C625.656 344.745 624.978 346.381 623.772 347.587C622.566 348.793 620.93 349.471 619.224 349.471Z" fill="#E6E6E6"/>
<path d="M645.756 371.178L416.733 371.179C415.027 371.179 413.391 370.501 412.185 369.295C410.979 368.088 410.301 366.452 410.301 364.747C410.301 363.041 410.979 361.405 412.185 360.199C413.391 358.992 415.027 358.315 416.733 358.315L645.756 358.314C647.461 358.314 649.097 358.992 650.304 360.198C651.51 361.405 652.188 363.041 652.188 364.746C652.188 366.452 651.51 368.088 650.304 369.294C649.097 370.501 647.461 371.178 645.756 371.178Z" fill="#E6E6E6"/>
<path d="M501.608 585.076H214.287C210.67 585.072 207.202 583.633 204.644 581.075C202.086 578.518 200.647 575.05 200.643 571.432V181.382C200.647 177.764 202.086 174.296 204.644 171.739C207.202 169.181 210.67 167.742 214.287 167.738H501.608C505.226 167.742 508.694 169.181 511.252 171.739C513.809 174.296 515.248 177.764 515.252 181.382V571.432C515.248 575.05 513.809 578.518 511.252 581.075C508.694 583.633 505.226 585.072 501.608 585.076Z" fill="white"/>
<path d="M238.25 268.153C238.241 275.176 239.623 282.133 242.315 288.62C245.008 295.107 248.959 300.997 253.939 305.949C254.357 306.362 254.784 306.774 255.215 307.177C257.816 309.607 260.654 311.77 263.686 313.634C264.268 313.993 264.85 314.337 265.447 314.672C268.513 316.4 271.744 317.819 275.091 318.907C275.669 319.097 276.256 319.276 276.843 319.441C287.483 322.493 298.807 322.174 309.259 318.529C309.463 318.456 309.667 318.383 309.866 318.311C319.041 314.973 327.125 309.182 333.237 301.568C339.349 293.954 343.256 284.81 344.531 275.13C345.807 265.45 344.403 255.606 340.472 246.669C336.541 237.732 330.233 230.044 322.236 224.443C314.239 218.842 304.858 215.542 295.116 214.903C285.373 214.263 275.642 216.308 266.981 220.816C258.32 225.323 251.062 232.12 245.996 240.466C240.93 248.813 238.251 258.389 238.25 268.153Z" fill="white"/>
<path d="M280.345 294.309C280.371 298.443 278.847 302.437 276.074 305.504C273.33 308.515 269.245 310.512 265.123 309.686C261.327 308.925 258.243 305.608 258.628 301.594C258.692 300.725 258.944 299.88 259.368 299.118C259.792 298.357 260.377 297.697 261.082 297.184C261.787 296.672 262.595 296.319 263.451 296.151C264.306 295.983 265.188 296.004 266.034 296.212C269.64 297.147 271.077 302.344 268.072 304.783C267.351 305.369 266.315 304.345 267.043 303.754C267.492 303.344 267.83 302.828 268.028 302.252C268.225 301.677 268.275 301.062 268.173 300.462C268.071 299.863 267.821 299.299 267.444 298.821C267.067 298.344 266.577 297.968 266.018 297.729C265.358 297.518 264.659 297.46 263.973 297.559C263.287 297.658 262.633 297.911 262.06 298.301C261.487 298.69 261.01 299.204 260.665 299.805C260.32 300.406 260.116 301.077 260.069 301.768C259.831 305.152 262.423 307.7 265.601 308.3C269.04 308.949 272.449 307.189 274.779 304.76C277.449 301.939 278.923 298.193 278.89 294.309C278.896 294.12 278.976 293.941 279.111 293.81C279.247 293.679 279.429 293.605 279.618 293.605C279.806 293.605 279.988 293.679 280.124 293.81C280.26 293.941 280.339 294.12 280.345 294.309Z" fill="#2F2E41"/>
<path d="M294.557 303.561C308.896 303.561 320.521 291.937 320.521 277.597C320.521 263.258 308.896 251.633 294.557 251.633C280.217 251.633 268.593 263.258 268.593 277.597C268.593 291.937 280.217 303.561 294.557 303.561Z" fill="#4F9CF9"/>
<path d="M293.228 288.676L293.202 287.705C295.007 287.655 296.598 287.542 297.794 286.668C298.133 286.406 298.411 286.075 298.611 285.696C298.81 285.317 298.925 284.899 298.949 284.471C298.97 284.21 298.93 283.947 298.834 283.704C298.737 283.46 298.585 283.242 298.39 283.067C297.938 282.793 297.421 282.646 296.892 282.642C296.364 282.637 295.844 282.775 295.388 283.041L294.585 283.409L296.124 272.158L297.086 272.29L295.776 281.86C296.312 281.661 296.89 281.6 297.455 281.681C298.021 281.762 298.558 281.984 299.016 282.326C299.324 282.595 299.566 282.932 299.723 283.31C299.879 283.688 299.946 284.097 299.919 284.505C299.89 285.08 299.737 285.642 299.468 286.15C299.2 286.659 298.824 287.104 298.366 287.452C296.83 288.575 294.833 288.631 293.228 288.676Z" fill="#2F2E41"/>
<path d="M307.065 273.116H301.84V274.086H307.065V273.116Z" fill="#2F2E41"/>
<path d="M290.571 273.116H285.345V274.086H290.571V273.116Z" fill="#2F2E41"/>
<path d="M276.843 319.441C287.483 322.492 298.807 322.174 309.259 318.529C309.463 318.456 309.667 318.383 309.866 318.31C307.403 316.411 304.617 314.971 301.643 314.061C301.853 313.315 301.85 312.525 301.633 311.781C301.339 310.837 300.748 310.014 299.948 309.434C299.148 308.853 298.182 308.547 297.194 308.559H290.868C289.882 308.546 288.917 308.852 288.119 309.432C287.321 310.011 286.731 310.834 286.439 311.776C286.222 312.521 286.219 313.313 286.429 314.061C283.809 314.863 281.333 316.076 279.094 317.655C278.643 317.971 278.206 318.301 277.784 318.645C277.464 318.902 277.148 319.169 276.843 319.441Z" fill="#2F2E41"/>
<path d="M314.897 274.843C314.897 279.219 317.051 282.847 319.85 283.478C320.135 283.542 320.426 283.575 320.718 283.575C323.925 283.575 326.54 279.66 326.54 274.843C326.612 272.359 325.82 269.928 324.299 267.964C323.825 267.391 323.243 266.918 322.586 266.571C322.009 266.27 321.369 266.112 320.718 266.11C319.825 266.121 318.957 266.413 318.239 266.945C316.265 268.342 314.897 271.355 314.897 274.843Z" fill="#3F3D56"/>
<path d="M262.987 274.843C262.987 278.607 264.579 281.819 266.81 283.046C267.421 283.389 268.109 283.571 268.809 283.575C268.965 283.575 269.12 283.565 269.275 283.546C272.263 283.192 274.631 279.427 274.631 274.843C274.631 271.17 273.112 268.022 270.968 266.736C270.319 266.334 269.572 266.117 268.809 266.11C268.159 266.112 267.518 266.27 266.941 266.571C266.282 266.919 265.699 267.394 265.224 267.968C263.707 269.933 262.917 272.362 262.987 274.843Z" fill="#3F3D56"/>
<path d="M267.173 282.209C267.289 282.209 267.403 282.182 267.505 282.129C267.608 282.076 267.697 282 267.764 281.906C267.832 281.812 267.876 281.703 267.893 281.589C267.91 281.475 267.9 281.358 267.863 281.249C266.472 277.113 266.054 272.712 266.64 268.388C267.227 264.064 268.803 259.934 271.245 256.318C273.687 252.702 276.93 249.698 280.723 247.54C284.515 245.381 288.753 244.126 293.109 243.872C297.465 243.618 301.821 244.371 305.839 246.074C309.856 247.777 313.427 250.384 316.273 253.691C319.119 256.998 321.165 260.917 322.25 265.144C323.335 269.37 323.432 273.79 322.531 278.059C322.492 278.248 322.529 278.444 322.634 278.606C322.74 278.767 322.905 278.88 323.093 278.92C323.282 278.96 323.479 278.923 323.64 278.818C323.802 278.713 323.915 278.548 323.955 278.36C324.903 273.871 324.802 269.224 323.661 264.78C322.52 260.336 320.37 256.216 317.378 252.738C314.385 249.261 310.631 246.52 306.407 244.73C302.184 242.939 297.604 242.146 293.024 242.414C288.444 242.681 283.987 244.001 280 246.271C276.013 248.541 272.604 251.699 270.036 255.501C267.469 259.303 265.812 263.646 265.196 268.193C264.58 272.739 265.021 277.366 266.484 281.714C266.532 281.858 266.625 281.984 266.749 282.073C266.873 282.161 267.021 282.209 267.173 282.209Z" fill="#3F3D56"/>
<path d="M307.6 260.775C308.031 261.478 308.21 262.307 308.107 263.126C308.005 263.944 307.628 264.703 307.038 265.279C305.628 266.854 303.381 266.953 301.429 266.661C299.239 266.333 296.916 265.307 294.699 265.999C292.809 266.588 291.461 268.302 289.497 268.732C287.756 269.114 285.674 268.609 285.064 266.753C284.771 265.861 286.175 265.479 286.467 266.366C286.862 267.567 288.567 267.543 289.544 267.21C291.109 266.677 292.316 265.381 293.854 264.762C295.689 264.194 297.652 264.199 299.483 264.777C301.224 265.169 303.228 265.75 304.962 265.018C306.245 264.476 307.266 262.769 306.343 261.509C305.789 260.753 307.051 260.026 307.6 260.775Z" fill="#2F2E41"/>
<path d="M291.615 322.973C286.481 322.977 281.373 322.259 276.439 320.839C275.859 320.676 275.25 320.491 274.638 320.291C271.201 319.172 267.883 317.714 264.733 315.941C264.142 315.609 263.549 315.259 262.922 314.873C259.808 312.957 256.893 310.735 254.222 308.24C253.781 307.829 253.344 307.407 252.917 306.985C244.514 298.607 239.057 287.729 237.364 275.984C235.672 264.24 237.837 252.263 243.533 241.854C249.228 231.445 258.148 223.165 268.952 218.258C279.756 213.351 291.86 212.083 303.446 214.643C315.033 217.203 325.475 223.453 333.206 232.456C340.936 241.458 345.537 252.725 346.317 264.565C347.096 276.405 344.013 288.179 337.53 298.117C331.047 308.055 321.514 315.621 310.363 319.679C310.163 319.752 309.956 319.826 309.749 319.9C303.921 321.94 297.79 322.979 291.615 322.973ZM291.615 216.243C281.341 216.244 271.299 219.293 262.759 225.004C254.219 230.716 247.565 238.833 243.641 248.328C239.717 257.822 238.699 268.268 240.715 278.342C242.731 288.416 247.691 297.665 254.967 304.919C255.37 305.317 255.787 305.719 256.208 306.113C258.739 308.476 261.499 310.58 264.448 312.394C265.042 312.761 265.601 313.09 266.159 313.403C269.142 315.083 272.285 316.463 275.541 317.523C276.117 317.712 276.686 317.885 277.236 318.04C287.589 321.011 298.608 320.702 308.778 317.155L309.366 316.944C320.835 312.769 330.466 304.687 336.569 294.118C342.671 283.548 344.855 271.166 342.736 259.147C340.617 247.127 334.332 236.238 324.983 228.392C315.634 220.546 303.82 216.245 291.615 216.243Z" fill="#CCCCCC"/>
<path d="M501.608 585.076H214.287C210.67 585.072 207.202 583.633 204.644 581.075C202.086 578.518 200.647 575.05 200.643 571.432V181.382C200.647 177.764 202.086 174.296 204.644 171.739C207.202 169.181 210.67 167.742 214.287 167.738H501.608C505.226 167.742 508.694 169.181 511.252 171.739C513.809 174.296 515.248 177.764 515.252 181.382V571.432C515.248 575.05 513.809 578.518 511.252 581.075C508.694 583.633 505.226 585.072 501.608 585.076ZM214.287 169.343C211.095 169.347 208.035 170.616 205.779 172.873C203.522 175.13 202.252 178.19 202.249 181.382V571.432C202.252 574.624 203.522 577.684 205.779 579.941C208.035 582.198 211.095 583.467 214.287 583.471H501.608C504.8 583.467 507.86 582.198 510.117 579.941C512.374 577.684 513.643 574.624 513.647 571.432V181.382C513.643 178.19 512.374 175.13 510.117 172.873C507.86 170.616 504.8 169.347 501.608 169.343H214.287Z" fill="#3F3D56"/>
<path d="M445.986 269.042H364.684C362.978 269.042 361.343 268.364 360.136 267.158C358.93 265.952 358.252 264.316 358.252 262.61C358.252 260.904 358.93 259.268 360.136 258.062C361.343 256.856 362.978 256.178 364.684 256.178H445.986C447.692 256.178 449.328 256.856 450.534 258.062C451.741 259.268 452.418 260.904 452.418 262.61C452.418 264.316 451.741 265.952 450.534 267.158C449.328 268.364 447.692 269.042 445.986 269.042Z" fill="#4F9CF9"/>
<path d="M472.518 290.75H364.684C362.978 290.75 361.343 290.072 360.136 288.866C358.93 287.66 358.252 286.024 358.252 284.318C358.252 282.612 358.93 280.976 360.136 279.77C361.343 278.564 362.978 277.886 364.684 277.886H472.518C474.224 277.886 475.86 278.564 477.066 279.77C478.272 280.976 478.95 282.612 478.95 284.318C478.95 286.024 478.272 287.66 477.066 288.866C475.86 290.072 474.224 290.75 472.518 290.75Z" fill="#4F9CF9"/>
<path d="M445.868 374.008H243.377C241.672 374.008 240.036 373.33 238.829 372.124C237.623 370.918 236.946 369.282 236.946 367.576C236.946 365.87 237.623 364.234 238.829 363.028C240.036 361.822 241.672 361.144 243.377 361.144H445.868C447.574 361.144 449.21 361.822 450.416 363.028C451.622 364.234 452.3 365.87 452.3 367.576C452.3 369.282 451.622 370.918 450.416 372.124C449.21 373.33 447.574 374.008 445.868 374.008Z" fill="#CCCCCC"/>
<path d="M472.4 395.715H243.377C241.672 395.715 240.036 395.038 238.829 393.832C237.623 392.625 236.946 390.989 236.946 389.283C236.946 387.578 237.623 385.942 238.829 384.735C240.036 383.529 241.672 382.852 243.377 382.852H472.4C474.106 382.852 475.742 383.529 476.948 384.735C478.154 385.942 478.832 387.578 478.832 389.283C478.832 390.989 478.154 392.625 476.948 393.832C475.742 395.038 474.106 395.715 472.4 395.715Z" fill="#CCCCCC"/>
<path d="M445.868 445.608H243.377C241.673 445.606 240.039 444.928 238.835 443.722C237.63 442.516 236.953 440.881 236.953 439.176C236.953 437.472 237.63 435.837 238.835 434.631C240.039 433.425 241.673 432.747 243.377 432.744H445.868C447.574 432.744 449.21 433.422 450.416 434.628C451.622 435.835 452.3 437.47 452.3 439.176C452.3 440.882 451.622 442.518 450.416 443.724C449.21 444.931 447.574 445.608 445.868 445.608Z" fill="#CCCCCC"/>
<path d="M472.4 467.316H243.377C241.673 467.314 240.039 466.635 238.835 465.429C237.63 464.223 236.953 462.588 236.953 460.884C236.953 459.18 237.63 457.545 238.835 456.339C240.039 455.133 241.673 454.454 243.377 454.452H472.4C474.106 454.452 475.742 455.13 476.948 456.336C478.154 457.542 478.832 459.178 478.832 460.884C478.832 462.59 478.154 464.226 476.948 465.432C475.742 466.638 474.106 467.316 472.4 467.316Z" fill="#CCCCCC"/>
<path d="M445.868 517.209H243.377C241.672 517.209 240.036 516.531 238.829 515.325C237.623 514.119 236.946 512.482 236.946 510.777C236.946 509.071 237.623 507.435 238.829 506.229C240.036 505.022 241.672 504.345 243.377 504.345H445.868C447.574 504.345 449.21 505.022 450.416 506.229C451.622 507.435 452.3 509.071 452.3 510.777C452.3 512.482 451.622 514.119 450.416 515.325C449.21 516.531 447.574 517.209 445.868 517.209Z" fill="#CCCCCC"/>
<path d="M472.4 538.916H243.377C241.672 538.916 240.036 538.239 238.829 537.033C237.623 535.826 236.946 534.19 236.946 532.485C236.946 530.779 237.623 529.143 238.829 527.936C240.036 526.73 241.672 526.053 243.377 526.053H472.4C474.106 526.053 475.742 526.73 476.948 527.936C478.154 529.143 478.832 530.779 478.832 532.485C478.832 534.19 478.154 535.826 476.948 537.033C475.742 538.239 474.106 538.916 472.4 538.916Z" fill="#CCCCCC"/>
<path d="M498.274 496.258C489.947 496.249 481.698 497.881 474.002 501.062C466.305 504.242 459.311 508.909 453.419 514.794C447.527 520.68 442.853 527.669 439.663 535.362C436.474 543.055 434.833 551.301 434.833 559.629C434.833 567.957 436.474 576.203 439.663 583.896C442.852 591.589 447.527 598.578 453.419 604.464C459.311 610.349 466.305 615.016 474.001 618.196C481.698 621.377 489.946 623.009 498.274 623C515.062 622.97 531.152 616.281 543.012 604.399C554.872 592.518 561.533 576.417 561.533 559.629C561.533 542.841 554.872 526.74 543.012 514.859C531.152 502.978 515.062 496.288 498.274 496.258Z" fill="#4F9CF9"/>
<path d="M492.262 585.947C490.593 585.95 488.97 585.41 487.635 584.41L487.552 584.348L470.125 571.017C468.497 569.766 467.432 567.921 467.164 565.885C466.896 563.85 467.447 561.792 468.696 560.163C469.945 558.534 471.79 557.467 473.825 557.197C475.86 556.928 477.918 557.477 479.549 558.724L490.837 567.38L517.51 532.581C518.129 531.775 518.9 531.098 519.78 530.589C520.66 530.08 521.632 529.75 522.64 529.617C523.648 529.484 524.672 529.55 525.654 529.813C526.636 530.076 527.557 530.529 528.364 531.148L528.366 531.149L528.2 531.379L528.37 531.149C529.998 532.4 531.063 534.246 531.331 536.281C531.6 538.316 531.05 540.375 529.802 542.005L498.428 582.918C497.702 583.86 496.769 584.623 495.701 585.147C494.633 585.671 493.458 585.941 492.268 585.938L492.262 585.947Z" fill="white"/>
</g>
<defs>
<clipPath id="clip0_232_22">
<rect width="688.24" height="622.667" fill="white" transform="scale(1.00054)"/>
</clipPath>
</defs>
</svg>
