<svg width="50" height="40" viewBox="0 0 50 40" fill="none" xmlns="http://www.w3.org/2000/svg">
<g clip-path="url(#clip0_153_85)">
<path d="M25.0001 2.5C24.3673 2.5 23.7423 2.60937 23.1485 2.82031L1.23448 10.7344C0.492291 11.0078 0.000103888 11.7109 0.000103888 12.5C0.000103888 13.2891 0.492291 13.9922 1.23448 14.2656L5.75792 15.8984C4.47667 17.9141 3.7501 20.2969 3.7501 22.8047V25C3.7501 27.2188 2.90635 29.5078 2.00792 31.3125C1.5001 32.3281 0.921979 33.3281 0.250104 34.25C0.000103891 34.5859 -0.0702086 35.0234 0.0704164 35.4219C0.211041 35.8203 0.539166 36.1172 0.945416 36.2188L5.94542 37.4688C6.27354 37.5547 6.6251 37.4922 6.91417 37.3125C7.20323 37.1328 7.40635 36.8359 7.46885 36.5C8.14073 33.1563 7.80479 30.1562 7.30479 28.0078C7.05479 26.8984 6.71885 25.7656 6.2501 24.7266V22.8047C6.2501 20.4453 7.04698 18.2187 8.42979 16.4375C9.4376 15.2266 10.7423 14.25 12.2735 13.6484L24.5392 8.82812C25.1798 8.57812 25.9064 8.89062 26.1564 9.53125C26.4064 10.1719 26.0939 10.8984 25.4532 11.1484L13.1876 15.9688C12.2189 16.3516 11.3673 16.9375 10.672 17.6562L23.1407 22.1562C23.7345 22.3672 24.3595 22.4766 24.9923 22.4766C25.6251 22.4766 26.2501 22.3672 26.8439 22.1562L48.7657 14.2656C49.5079 14 50.0001 13.2891 50.0001 12.5C50.0001 11.7109 49.5079 11.0078 48.7657 10.7344L26.8517 2.82031C26.2579 2.60937 25.6329 2.5 25.0001 2.5ZM10.0001 31.875C10.0001 34.6328 16.7189 37.5 25.0001 37.5C33.2814 37.5 40.0001 34.6328 40.0001 31.875L38.8048 20.5156L27.6954 24.5312C26.8282 24.8438 25.9142 25 25.0001 25C24.086 25 23.1642 24.8438 22.3048 24.5312L11.1954 20.5156L10.0001 31.875Z" fill="#2563EB"/>
</g>
<defs>
<clipPath id="clip0_153_85">
<path d="M0 0H50V40H0V0Z" fill="white"/>
</clipPath>
</defs>
</svg>
