<svg width="36" height="32" viewBox="0 0 36 32" fill="none" xmlns="http://www.w3.org/2000/svg">
<g clip-path="url(#clip0_112_533)">
<path d="M4 2C4 0.89375 3.10625 0 2 0C0.89375 0 0 0.89375 0 2V8V24C0 26.2062 1.79375 28 4 28H16V24H4V10H16V6H4V2ZM18 12C18 13.1062 18.8937 14 20 14H34C35.1063 14 36 13.1062 36 12V4C36 2.89375 35.1063 2 34 2H27.8312C27.3 2 26.7938 1.7875 26.4188 1.4125L25.5875 0.5875C25.2125 0.2125 24.7062 0 24.175 0H20C18.8937 0 18 0.89375 18 2V12ZM18 30C18 31.1063 18.8937 32 20 32H34C35.1063 32 36 31.1063 36 30V22C36 20.8937 35.1063 20 34 20H27.8312C27.3 20 26.7938 19.7875 26.4188 19.4125L25.5875 18.5812C25.2125 18.2062 24.7062 17.9937 24.175 17.9937H20C18.8937 17.9937 18 18.8875 18 19.9937V30Z" fill="#2563EB"/>
</g>
<defs>
<clipPath id="clip0_112_533">
<path d="M0 0H36V32H0V0Z" fill="white"/>
</clipPath>
</defs>
</svg>
