<svg width="22" height="22" viewBox="0 0 22 22" fill="none" xmlns="http://www.w3.org/2000/svg">
<g clip-path="url(#clip0_266_4421)">
<path d="M7.08549 1.05749C6.75464 0.258276 5.88238 -0.167112 5.04879 0.0606211L1.26757 1.09186C0.519918 1.29811 0 1.97701 0 2.75044C0 13.3808 8.61947 22.0003 19.2499 22.0003C20.0233 22.0003 20.7022 21.4804 20.9084 20.7327L21.9397 16.9515C22.1674 16.1179 21.742 15.2457 20.9428 14.9148L16.8178 13.1961C16.1175 12.9039 15.3054 13.1058 14.8284 13.6945L13.0925 15.8128C10.0675 14.382 7.6183 11.9328 6.18745 8.90782L8.3058 7.17619C8.89446 6.69495 9.09641 5.88714 8.80423 5.18675L7.08549 1.06179V1.05749Z" fill="#909090"/>
</g>
<defs>
<clipPath id="clip0_266_4421">
<path d="M0 0H21.9998V21.9998H0V0Z" fill="white"/>
</clipPath>
</defs>
</svg>
