<svg width="24" height="32" viewBox="0 0 24 32" fill="none" xmlns="http://www.w3.org/2000/svg">
<g clip-path="url(#clip0_112_454)">
<path d="M4 0C1.79375 0 0 1.79375 0 4V28C0 30.2062 1.79375 32 4 32H20C22.2062 32 24 30.2062 24 28V10H16C14.8938 10 14 9.10625 14 8V0H4ZM16 0V8H24L16 0ZM7 16H17C17.55 16 18 16.45 18 17C18 17.55 17.55 18 17 18H7C6.45 18 6 17.55 6 17C6 16.45 6.45 16 7 16ZM7 20H17C17.55 20 18 20.45 18 21C18 21.55 17.55 22 17 22H7C6.45 22 6 21.55 6 21C6 20.45 6.45 20 7 20ZM7 24H17C17.55 24 18 24.45 18 25C18 25.55 17.55 26 17 26H7C6.45 26 6 25.55 6 25C6 24.45 6.45 24 7 24Z" fill="#2563EB"/>
</g>
<defs>
<clipPath id="clip0_112_454">
<path d="M0 0H24V32H0V0Z" fill="white"/>
</clipPath>
</defs>
</svg>
