<svg width="24" height="27" viewBox="0 0 24 27" fill="none" xmlns="http://www.w3.org/2000/svg">
<g clip-path="url(#clip0_112_389)">
<path d="M21.9375 1.68784H1.68214C0.754013 1.68784 -9.26977e-05 2.45249 -9.26977e-05 3.39117V23.6097C-9.26977e-05 24.5483 0.754013 25.313 1.68214 25.313H21.9375C22.8657 25.313 23.6251 24.5483 23.6251 23.6097V3.39117C23.6251 2.45249 22.8657 1.68784 21.9375 1.68784ZM7.14019 21.938H3.6386V10.6633H7.14546V21.938H7.14019ZM5.38939 9.12343C4.26614 9.12343 3.35911 8.21112 3.35911 7.09315C3.35911 5.97517 4.26614 5.06286 5.38939 5.06286C6.50737 5.06286 7.41968 5.97517 7.41968 7.09315C7.41968 8.2164 6.51264 9.12343 5.38939 9.12343ZM20.2659 21.938H16.7643V16.4536C16.7643 15.1457 16.7379 13.4635 14.9449 13.4635C13.1203 13.4635 12.8408 14.8873 12.8408 16.3586V21.938H9.33922V10.6633H12.6984V12.2031H12.7459C13.2152 11.3172 14.3596 10.3838 16.0629 10.3838C19.6067 10.3838 20.2659 12.7199 20.2659 15.7575V21.938Z" fill="#9CA3AF"/>
</g>
<defs>
<clipPath id="clip0_112_389">
<path d="M0 0H23.6251V27.0002H0V0Z" fill="white"/>
</clipPath>
</defs>
</svg>
