<svg width="40" height="32" viewBox="0 0 40 32" fill="none" xmlns="http://www.w3.org/2000/svg">
<g clip-path="url(#clip0_112_427)">
<path d="M20 0C21.1063 0 22 0.89375 22 2V6H29.5C31.9875 6 34 8.0125 34 10.5V27.5C34 29.9875 31.9875 32 29.5 32H10.5C8.0125 32 6 29.9875 6 27.5V10.5C6 8.0125 8.0125 6 10.5 6H18V2C18 0.89375 18.8937 0 20 0ZM13 24C12.45 24 12 24.45 12 25C12 25.55 12.45 26 13 26H15C15.55 26 16 25.55 16 25C16 24.45 15.55 24 15 24H13ZM19 24C18.45 24 18 24.45 18 25C18 25.55 18.45 26 19 26H21C21.55 26 22 25.55 22 25C22 24.45 21.55 24 21 24H19ZM25 24C24.45 24 24 24.45 24 25C24 25.55 24.45 26 25 26H27C27.55 26 28 25.55 28 25C28 24.45 27.55 24 27 24H25ZM16.5 16C16.5 15.337 16.2366 14.7011 15.7678 14.2322C15.2989 13.7634 14.663 13.5 14 13.5C13.337 13.5 12.7011 13.7634 12.2322 14.2322C11.7634 14.7011 11.5 15.337 11.5 16C11.5 16.663 11.7634 17.2989 12.2322 17.7678C12.7011 18.2366 13.337 18.5 14 18.5C14.663 18.5 15.2989 18.2366 15.7678 17.7678C16.2366 17.2989 16.5 16.663 16.5 16ZM26 18.5C26.663 18.5 27.2989 18.2366 27.7678 17.7678C28.2366 17.2989 28.5 16.663 28.5 16C28.5 15.337 28.2366 14.7011 27.7678 14.2322C27.2989 13.7634 26.663 13.5 26 13.5C25.337 13.5 24.7011 13.7634 24.2322 14.2322C23.7634 14.7011 23.5 15.337 23.5 16C23.5 16.663 23.7634 17.2989 24.2322 17.7678C24.7011 18.2366 25.337 18.5 26 18.5ZM3 14H4V26H3C1.34375 26 0 24.6562 0 23V17C0 15.3438 1.34375 14 3 14ZM37 14C38.6562 14 40 15.3438 40 17V23C40 24.6562 38.6562 26 37 26H36V14H37Z" fill="#2563EB"/>
</g>
<defs>
<clipPath id="clip0_112_427">
<path d="M0 0H40V32H0V0Z" fill="white"/>
</clipPath>
</defs>
</svg>
