<svg width="36" height="32" viewBox="0 0 36 32" fill="none" xmlns="http://www.w3.org/2000/svg">
<path d="M36 32H0V0H36V32Z" stroke="#E5E7EB"/>
<path d="M16 2H11.325C9.63125 2 8.11875 3.06875 7.55625 4.6625L0.19375 25.45C0.06875 25.8125 0 26.2 0 26.5875C0 28.4688 1.53125 30 3.4125 30H16V26C16 24.8937 16.8937 24 18 24C19.1063 24 20 24.8937 20 26V30H32.5875C34.475 30 36 28.4688 36 26.5875C36 26.2 35.9313 25.8125 35.8063 25.45L28.4438 4.6625C27.875 3.06875 26.3687 2 24.675 2H20V6C20 7.10625 19.1063 8 18 8C16.8937 8 16 7.10625 16 6V2ZM20 14V18C20 19.1063 19.1063 20 18 20C16.8937 20 16 19.1063 16 18V14C16 12.8938 16.8937 12 18 12C19.1063 12 20 12.8938 20 14Z" fill="#2563EB"/>
</svg>
