<svg width="36" height="32" viewBox="0 0 36 32" fill="none" xmlns="http://www.w3.org/2000/svg">
<g clip-path="url(#clip0_112_481)">
<path d="M-6.10352e-05 8C-6.10352e-05 5.79375 1.79369 4 3.99994 4H19.9999C22.2062 4 23.9999 5.79375 23.9999 8V24C23.9999 26.2062 22.2062 28 19.9999 28H3.99994C1.79369 28 -6.10352e-05 26.2062 -6.10352e-05 24V8ZM34.9437 6.2375C35.5937 6.5875 35.9999 7.2625 35.9999 8V24C35.9999 24.7375 35.5937 25.4125 34.9437 25.7625C34.2937 26.1125 33.5062 26.075 32.8874 25.6625L26.8874 21.6625L25.9999 21.0688V20V12V10.9312L26.8874 10.3375L32.8874 6.3375C33.4999 5.93125 34.2874 5.8875 34.9437 6.2375Z" fill="#2563EB"/>
</g>
<defs>
<clipPath id="clip0_112_481">
<path d="M0 0H36V32H0V0Z" fill="white"/>
</clipPath>
</defs>
</svg>
