<svg width="27" height="27" viewBox="0 0 27 27" fill="none" xmlns="http://www.w3.org/2000/svg">
<g clip-path="url(#clip0_112_386)">
<path d="M24.2246 8.00127C24.2417 8.24111 24.2417 8.481 24.2417 8.72083C24.2417 16.0361 18.6739 24.4651 8.49746 24.4651C5.3623 24.4651 2.44988 23.5571 0 21.981C0.445447 22.0324 0.873704 22.0495 1.33629 22.0495C3.92318 22.0495 6.30456 21.1758 8.20621 19.6853C5.77347 19.6339 3.73476 18.0406 3.03233 15.8477C3.375 15.8991 3.71762 15.9334 4.07742 15.9334C4.57423 15.9334 5.0711 15.8648 5.53363 15.7449C2.99811 15.2309 1.0964 13.0038 1.0964 10.3141V10.2456C1.83305 10.6568 2.68972 10.9137 3.59765 10.948C2.10716 9.95429 1.13068 8.25825 1.13068 6.33945C1.13068 5.31155 1.40474 4.3693 1.88446 3.54696C4.60846 6.90482 8.70302 9.09767 13.2943 9.33756C13.2087 8.92639 13.1573 8.49814 13.1573 8.06983C13.1573 5.0203 15.6243 2.53619 18.6909 2.53619C20.2842 2.53619 21.7232 3.20434 22.7341 4.28365C23.9847 4.04382 25.1839 3.58123 26.2461 2.94736C25.8349 4.23229 24.9612 5.31161 23.8134 5.99684C24.927 5.87697 26.0063 5.56853 26.9999 5.14027C26.2462 6.23667 25.3039 7.21316 24.2246 8.00127Z" fill="#9CA3AF"/>
</g>
<defs>
<clipPath id="clip0_112_386">
<path d="M0 0H27V27H0V0Z" fill="white"/>
</clipPath>
</defs>
</svg>
